<svg xmlns="http://www.w3.org/2000/svg" viewBox="0 0 453.54 255.12"><defs><style>.cls-1{fill:#282828;}.cls-2,.cls-3,.cls-6,.cls-7{fill:#fff;stroke:#969696;}.cls-2,.cls-3,.cls-6,.cls-7,.cls-8{stroke-miterlimit:10;}.cls-2,.cls-3{stroke-width:4px;}.cls-3{stroke-linecap:round;}.cls-4{fill:#7ab155;}.cls-5{fill:#3394c1;}.cls-6{stroke-width:5px;}.cls-7{stroke-width:3px;}.cls-8{fill:none;stroke:#282828;stroke-width:2px;}</style></defs><title>ResponsiveBlack</title><g id="Ebene_2" data-name="Ebene 2"><g id="Ebene_1-2" data-name="Ebene 1"><rect class="cls-1" width="453.54" height="255.12"/><rect class="cls-2" x="31.82" y="39.06" width="206.35" height="140.39" rx="2.83" ry="2.83"/><line class="cls-2" x1="135" y1="213.27" x2="135" y2="179.44"/><line class="cls-3" x1="135" y1="213.27" x2="168.82" y2="213.27"/><line class="cls-3" x1="101.17" y1="213.27" x2="135" y2="213.27"/><rect class="cls-4" x="46.26" y="50.05" width="180.52" height="23.17" rx="0.85" ry="0.85"/><rect class="cls-5" x="46.26" y="79.45" width="59.26" height="82.64" rx="0.85" ry="0.85"/><rect class="cls-5" x="183.03" y="79.45" width="43.74" height="30.3" rx="0.85" ry="0.85"/><rect class="cls-1" x="114.05" y="79.45" width="59.26" height="6.06" rx="0.57" ry="0.57"/><rect class="cls-1" x="114.05" y="89.43" width="59.26" height="6.06" rx="0.57" ry="0.57"/><rect class="cls-1" x="114.05" y="99.41" width="59.26" height="6.06" rx="0.57" ry="0.57"/><rect class="cls-1" x="114.05" y="114.71" width="112.73" height="6.06" rx="0.57" ry="0.57"/><rect class="cls-1" x="114.05" y="125.41" width="112.73" height="6.06" rx="0.57" ry="0.57"/><rect class="cls-1" x="114.05" y="136.1" width="112.73" height="6.06" rx="0.57" ry="0.57"/><rect class="cls-6" x="257.47" y="89.86" width="83.99" height="123.41" rx="1.42" ry="1.42"/><rect class="cls-4" x="267.25" y="97.53" width="64.45" height="16.27" rx="0.85" ry="0.85"/><rect class="cls-5" x="267.25" y="116.3" width="17.83" height="18.27" rx="0.85" ry="0.85"/><rect class="cls-1" x="290.08" y="116.3" width="41.61" height="4.26" rx="0.57" ry="0.57"/><rect class="cls-1" x="290.08" y="123.3" width="41.61" height="4.26" rx="0.57" ry="0.57"/><rect class="cls-1" x="290.08" y="130.31" width="41.61" height="4.26" rx="0.57" ry="0.57"/><rect class="cls-1" x="267.25" y="140.85" width="64.45" height="4.26" rx="0.57" ry="0.57"/><rect class="cls-1" x="267.25" y="147.86" width="64.45" height="4.26" rx="0.57" ry="0.57"/><rect class="cls-1" x="267.25" y="154.86" width="64.45" height="4.26" rx="0.57" ry="0.57"/><rect class="cls-5" x="267.25" y="163.17" width="64.45" height="37.59" rx="0.85" ry="0.85"/><rect class="cls-7" x="358.73" y="121.12" width="55.41" height="92.98" rx="1.42" ry="1.42"/><circle class="cls-8" cx="386.43" cy="199.05" r="5.01"/><rect class="cls-4" x="363.84" y="125.64" width="45.18" height="12.43" rx="0.85" ry="0.85"/><rect class="cls-5" x="363.84" y="142.06" width="45.18" height="20.54" rx="0.85" ry="0.85"/><rect class="cls-1" x="363.84" y="165.78" width="45.18" height="4.79" rx="0.57" ry="0.57"/><rect class="cls-1" x="363.84" y="173.66" width="45.18" height="4.79" rx="0.57" ry="0.57"/><rect class="cls-1" x="363.84" y="181.54" width="45.18" height="4.79" rx="0.57" ry="0.57"/></g></g></svg>