<svg xmlns="http://www.w3.org/2000/svg" viewBox="0 0 1920 122.44"><defs><style>.cls-1,.cls-2,.cls-3{fill:#0a0a0a;}.cls-1{opacity:0.6;}.cls-2{opacity:0.8;}</style></defs><title>section-top</title><g id="Ebene_2" data-name="Ebene 2"><g id="Ebene_1-2" data-name="Ebene 1"><path class="cls-1" d="M1860.08,32.46c-37.22-7.37-97.53-17.54-157.08-20-30.9-1.29-91.22,7.16-158.82,19.21,32.74,11.07,74.69,20.79,150.82,20.79C1773.51,52.44,1825.83,43.17,1860.08,32.46Z"/><path class="cls-2" d="M907,80.44q33.93-4.91,66.23-10.57C871.67,61.56,754.84,56,653,61.44c-244,13-490-23.1-490-23.1h0c61.34,21.64,104.1,51,166,64.1C433,124.44,734.5,105.34,907,80.44Z"/><path class="cls-3" d="M1860.08,32.46c-34.25,10.71-86.57,20-165.08,20-76.13,0-118.08-9.72-150.82-20.79-47.25-16-75.3-34.76-159.18-31.21-124.83,5.27-255.07,42.23-411.77,69.43Q940.89,75.48,907,80.44c-172.5,24.9-474,44-578,22C267.13,89.35,224.37,60,163,38.34,121.27,23.6,70.89,12.44,0,12.44v110H1920V.44S1907,17.8,1860.08,32.46Z"/></g></g></svg>